<?xml version="1.0" encoding="iso-8859-1"?>
<!-- Generator: Adobe Illustrator 16.0.0, SVG Export Plug-In . SVG Version: 6.00 Build 0)  -->
<!DOCTYPE svg PUBLIC "-//W3C//DTD SVG 1.1//EN" "http://www.w3.org/Graphics/SVG/1.1/DTD/svg11.dtd">
<svg version="1.1" xmlns="http://www.w3.org/2000/svg" xmlns:xlink="http://www.w3.org/1999/xlink" x="0px" y="0px" width="512px"
	 height="512px" viewBox="0 0 512 512" style="enable-background:new 0 0 512 512;" xml:space="preserve">
<g id="B_-_143_x2C__audit_x2C__Analytics_x2C__business_x2C__data_x2C__marketing_x2C__paper_x2C__report">
	<g>
		<g>
			<path d="M350.673,452.085H81.059c-1.526,0-2.886-0.963-3.393-2.402c-0.507-1.438-0.05-3.041,1.139-3.997
				c82.515-66.344,55.614-131.224,27.133-199.913c-28.237-68.102-57.436-138.522,29.277-208.2c0.639-0.513,1.434-0.793,2.253-0.793
				h269.584c1.526,0,2.886,0.963,3.393,2.402s0.05,3.042-1.14,3.998c-82.49,66.296-55.593,131.16-27.115,199.831
				c28.248,68.118,57.457,138.556-29.263,208.28C352.288,451.805,351.492,452.085,350.673,452.085z M90.948,444.892h258.453
				c81.326-66.071,54.516-130.706,26.144-199.125c-27.375-66.013-55.646-134.211,21.615-201.793H138.739
				c-81.317,66.024-54.518,130.644-26.156,199.044C139.962,309.051,168.248,377.261,90.948,444.892z"/>
		</g>
		<g>
			<path d="M373.784,475.22H104.2c-1.529,0-2.891-0.967-3.395-2.409c-0.505-1.443-0.042-3.048,1.154-4
				c8.766-6.985,16.809-14.621,23.906-22.696c0.683-0.777,1.667-1.223,2.702-1.223H349.4
				c81.306-66.085,54.504-130.709,26.141-199.116c-20.154-48.609-40.995-98.873-19.089-149.001c0.572-1.31,1.866-2.156,3.296-2.156
				h28.103c1.216,0,2.35,0.614,3.014,1.633c0.664,1.019,0.768,2.304,0.276,3.417c-21.998,49.808-2.391,103.336,16.571,155.102
				c27.02,73.765,54.96,150.04-31.675,219.656C375.398,474.94,374.604,475.22,373.784,475.22z M114.091,468.026h258.422
				c81.427-66.151,55.687-136.411,28.444-210.781c-18.829-51.404-38.278-104.503-18.491-155.433h-20.337
				c-19.176,46.583-0.11,92.568,20.058,141.209c28.238,68.106,57.438,138.531-29.26,208.27c-0.639,0.514-1.434,0.794-2.254,0.794
				H130.185C125.223,457.629,119.835,462.965,114.091,468.026z"/>
		</g>
		<g>
			<path d="M316.384,432.271c-28.035,0-50.844-22.808-50.844-50.842c0-6.184,1.078-12.212,3.204-17.92
				c0.693-1.858,2.759-2.804,4.619-2.117l35.705,13.217l-13.305-35.938c-0.68-1.837,0.234-3.879,2.057-4.596
				c5.873-2.311,12.119-3.482,18.563-3.482c28.002,0,50.783,22.805,50.783,50.836C367.167,409.463,344.386,432.271,316.384,432.271z
				 M274.371,369.436c-1.088,3.871-1.638,7.891-1.638,11.993c0,24.067,19.581,43.648,43.65,43.648
				c24.035,0,43.59-19.581,43.59-43.648c0-24.064-19.555-43.643-43.59-43.643c-4.334,0-8.558,0.614-12.6,1.829l14.747,39.834
				c0.487,1.317,0.164,2.799-0.83,3.792c-0.993,0.993-2.474,1.316-3.792,0.83L274.371,369.436z"/>
		</g>
		<g>
			<path d="M315.157,384.295c-0.419,0-0.841-0.073-1.248-0.224l-52.412-19.413c-1.86-0.689-2.812-2.755-2.126-4.616
				c6.031-16.374,18.853-29.182,35.176-35.14c1.861-0.677,3.92,0.273,4.607,2.132l19.378,52.417
				c0.486,1.317,0.162,2.798-0.832,3.791C317.014,383.929,316.095,384.295,315.157,384.295z M267.477,359.202l41.596,15.406
				l-15.381-41.604C282.031,338.196,272.718,347.505,267.477,359.202z"/>
		</g>
		<g>
			<path d="M142.983,123.414h-26.907c-1.986,0-3.597-1.61-3.597-3.597V92.954c0-1.986,1.61-3.597,3.597-3.597h26.907
				c1.986,0,3.597,1.61,3.597,3.597v26.863C146.58,121.803,144.969,123.414,142.983,123.414z M119.673,116.22h19.713V96.551h-19.713
				V116.22z"/>
		</g>
		<g>
			<path d="M203.362,103.103h-50.34c-1.986,0-3.597-1.61-3.597-3.597s1.61-3.597,3.597-3.597h50.34c1.986,0,3.597,1.61,3.597,3.597
				S205.348,103.103,203.362,103.103z"/>
		</g>
		<g>
			<path d="M271.239,115.323H153.021c-1.986,0-3.597-1.61-3.597-3.597s1.61-3.597,3.597-3.597h118.218
				c1.986,0,3.597,1.61,3.597,3.597S273.226,115.323,271.239,115.323z"/>
		</g>
		<g>
			<path d="M142.983,165.961h-26.907c-1.986,0-3.597-1.61-3.597-3.597V135.51c0-1.986,1.61-3.597,3.597-3.597h26.907
				c1.986,0,3.597,1.61,3.597,3.597v26.854C146.58,164.351,144.969,165.961,142.983,165.961z M119.673,158.768h19.713v-19.661
				h-19.713V158.768z"/>
		</g>
		<g>
			<path d="M203.362,145.659h-50.34c-1.986,0-3.597-1.61-3.597-3.597s1.61-3.597,3.597-3.597h50.34c1.986,0,3.597,1.61,3.597,3.597
				S205.348,145.659,203.362,145.659z"/>
		</g>
		<g>
			<path d="M271.239,157.792H153.021c-1.986,0-3.597-1.61-3.597-3.597s1.61-3.597,3.597-3.597h118.218
				c1.986,0,3.597,1.61,3.597,3.597S273.226,157.792,271.239,157.792z"/>
		</g>
		<g>
			<path d="M142.983,208.509h-26.907c-1.986,0-3.597-1.61-3.597-3.597v-26.935c0-1.986,1.61-3.597,3.597-3.597h26.907
				c1.986,0,3.597,1.61,3.597,3.597v26.935C146.58,206.899,144.969,208.509,142.983,208.509z M119.673,201.316h19.713v-19.742
				h-19.713V201.316z"/>
		</g>
		<g>
			<path d="M203.362,188.125h-50.34c-1.986,0-3.597-1.61-3.597-3.597s1.61-3.597,3.597-3.597h50.34c1.986,0,3.597,1.61,3.597,3.597
				S205.348,188.125,203.362,188.125z"/>
		</g>
		<g>
			<path d="M271.239,200.338H153.021c-1.986,0-3.597-1.61-3.597-3.597s1.61-3.597,3.597-3.597h118.218
				c1.986,0,3.597,1.61,3.597,3.597S273.226,200.338,271.239,200.338z"/>
		</g>
		<g>
			<path d="M206.191,304.052h-18.764c-1.986,0-3.597-1.61-3.597-3.597V255.96c0-1.986,1.61-3.597,3.597-3.597h18.764
				c1.986,0,3.597,1.61,3.597,3.597v44.495C209.788,302.441,208.178,304.052,206.191,304.052z M191.024,296.858h11.57v-37.301
				h-11.57V296.858z"/>
		</g>
		<g>
			<path d="M237.708,304.052h-18.765c-1.986,0-3.597-1.61-3.597-3.597v-73.291c0-1.986,1.61-3.597,3.597-3.597h18.765
				c1.986,0,3.597,1.61,3.597,3.597v73.291C241.305,302.441,239.695,304.052,237.708,304.052z M222.541,296.858h11.571v-66.097
				h-11.571V296.858z"/>
		</g>
		<g>
			<path d="M269.225,304.052h-18.822c-1.986,0-3.597-1.61-3.597-3.597V263.81c0-1.986,1.61-3.597,3.597-3.597h18.822
				c1.986,0,3.597,1.61,3.597,3.597v36.646C272.821,302.441,271.211,304.052,269.225,304.052z M253.999,296.858h11.629v-29.452
				h-11.629V296.858z"/>
		</g>
		<g>
			<path d="M300.713,304.052H281.92c-1.986,0-3.597-1.61-3.597-3.597v-59.62c0-1.986,1.61-3.597,3.597-3.597h18.793
				c1.986,0,3.597,1.61,3.597,3.597v59.62C304.31,302.441,302.699,304.052,300.713,304.052z M285.517,296.858h11.6v-52.426h-11.6
				V296.858z"/>
		</g>
		<g>
			<path d="M327.998,314.645H160.113c-1.986,0-3.597-1.61-3.597-3.597s1.61-3.597,3.597-3.597h167.885
				c1.986,0,3.597,1.61,3.597,3.597S329.984,314.645,327.998,314.645z"/>
		</g>
	</g>
</g>
<g id="Layer_1">
</g>
</svg>
