<?xml version="1.0" encoding="UTF-8" standalone="no"?> <svg xmlns="http://www.w3.org/2000/svg" width="1661.48" height="1706.699" viewBox="0 0 1661.48 1706.699">
  <g id="Layer_x0020_1" transform="translate(-669.26 -646.66)">
    <path id="Path_126" data-name="Path 126" d="M2279.79,832.11a173.029,173.029,0,0,1,50.95,122.57v83.95H1983.7V954.68a173.52,173.52,0,0,1,296.09-122.57Zm50.95,259.85v920.23c-47.95-47.09-97.36-73.16-146.85-79.67V1091.96Zm-200.19,0v841.07c-49.86,7.44-99.29,34.31-146.85,79.15V1091.95h146.85Zm180.84,976.96-40.48,78.97c-20.87-8.11-57.35-21.26-69.22-23.71a216.955,216.955,0,0,0-89.59.13c-11.1,2.33-45.77,16.17-68.65,25.66l-40.95-81.42c101.33-107.94,204.04-116.85,308.88.37Zm-64.84,126.5-67.07,130.84.09.08a26.672,26.672,0,0,1-48.34-1.87l-63.8-126.84c20.24-8.45,47.92-19.64,55.51-21.23a171.13,171.13,0,0,1,68.13-.13c8.22,1.7,36.76,12.01,55.48,19.15Z" fill="#333"/>
    <path id="Path_127" data-name="Path 127" d="M1818.33,768.67a44.146,44.146,0,0,1,44.08,44.08V2309.28a44.146,44.146,0,0,1-44.08,44.08h-1105a44.146,44.146,0,0,1-44.07-44.08V812.75a44.146,44.146,0,0,1,44.07-44.08H852.14V917.34a60,60,0,0,0,120,0V768.67h233.69V917.34a60,60,0,0,0,120,0V768.67h233.69V917.34a60,60,0,0,0,120,0V768.67h138.81Zm-254.28,398.79a26.67,26.67,0,0,0,0-53.34H967.62a26.67,26.67,0,0,0,0,53.34Zm0,280.14a26.67,26.67,0,0,0,0-53.34H967.62a26.67,26.67,0,0,0,0,53.34Zm0,280.15a26.67,26.67,0,1,0,0-53.34H967.62a26.67,26.67,0,0,0,0,53.34Zm0,280.15a26.67,26.67,0,1,0,0-53.34H967.62a26.67,26.67,0,0,0,0,53.34Z" fill="#333"/>
    <path id="Path_128" data-name="Path 128" d="M938.81,673.33a26.67,26.67,0,0,0-53.34,0v244a26.67,26.67,0,0,0,53.34,0Z" fill="gray"/>
    <path id="Path_129" data-name="Path 129" d="M1292.5,673.33a26.67,26.67,0,0,0-53.34,0v244a26.67,26.67,0,0,0,53.34,0Z" fill="gray"/>
    <path id="Path_130" data-name="Path 130" d="M1646.19,673.33a26.67,26.67,0,0,0-53.34,0v244a26.67,26.67,0,0,0,53.34,0Z" fill="gray"/>
  </g>
</svg>
