<?xml version="1.0" encoding="UTF-8" standalone="no"?> <svg id="Layer_1" data-name="Layer 1" xmlns="http://www.w3.org/2000/svg" viewBox="0 0 64 64"><title>urgent-alert-warn-caution-emergency-siren</title><path d="M60,59.97784A2.97787,2.97787,0,0,0,57.02216,57H6.97784A2.97787,2.97787,0,0,0,4,59.97784V62H60Z"/><polygon points="33 35 34 25 30 25 31 35 33 35"/><path d="M11,55H53V31.99994a21,21,0,0,0-42,0ZM32,16,47,44H16Z"/><circle cx="32" cy="39" r="2"/><rect x="31" y="2" width="2" height="5"/><rect x="51" y="16" width="5" height="2"/><rect x="8" y="16" width="5" height="2"/><rect x="16.4127" y="6.49992" width="1.99979" height="5.00016" transform="translate(-1.26311 14.95118) rotate(-45.00791)"/><rect x="44.26799" y="8.00011" width="5.00016" height="1.99979" transform="translate(7.3304 35.70061) rotate(-44.99209)"/></svg>